<?xml version="1.0" encoding="UTF-8"?>
<svg xmlns="http://www.w3.org/2000/svg" viewBox="0 0 920 660" width="920" height="660" font-family="Segoe UI, Arial, Helvetica, sans-serif">
  <defs>
    <marker id="arr" markerWidth="8" markerHeight="8" refX="7" refY="3" orient="auto">
      <polygon points="0 0, 8 3, 0 6" fill="#1a365d"/>
    </marker>
    <marker id="arrP" markerWidth="7" markerHeight="7" refX="6" refY="3" orient="auto">
      <polygon points="0 0, 7 3, 0 6" fill="#805ad5"/>
    </marker>
  </defs>
  <rect width="100%" height="100%" fill="#fafcff"/>
  <text x="460" y="26" text-anchor="middle" font-size="15" font-weight="600" fill="#1a365d">?????????????? ?????? ??????</text>
  <text x="460" y="44" text-anchor="middle" font-size="10" fill="#4a5568">?? «???????»: ???????? ? ?????????????? (???????????? ???????? PostgreSQL)</text>

  <!-- ??????????? ? ????? -->
  <rect x="28" y="68" width="172" height="92" rx="6" fill="#fff8e6" stroke="#c05621" stroke-width="1.5"/>
  <text x="114" y="92" text-anchor="middle" font-size="11" font-weight="600" fill="#744210">???????????</text>
  <text x="114" y="110" text-anchor="middle" font-size="9.5" fill="#4a5568">??? ?????, ?????, ???????</text>
  <text x="114" y="128" text-anchor="middle" font-size="8" fill="#718096">ship_types · dockyards · captains</text>
  <!-- FK: ????? ????????? ?? ??????????? — ??????? ? ???????? -->
  <path d="M 318 128 L 200 128" fill="none" stroke="#805ad5" stroke-width="1.2" stroke-dasharray="5,3" marker-end="url(#arrP)"/>
  <text x="240" y="122" font-size="9" fill="#553c9a">N:1</text>

  <!-- ????? -->
  <rect x="320" y="88" width="200" height="76" rx="6" fill="#e8f4fc" stroke="#0f4c81" stroke-width="2"/>
  <text x="420" y="114" text-anchor="middle" font-size="13" font-weight="600" fill="#0f4c81">?????</text>
  <text x="420" y="132" text-anchor="middle" font-size="9" fill="#4a5568">home_port_id ? ???? ????????</text>
  <text x="420" y="150" text-anchor="middle" font-size="8" fill="#718096">ships</text>

  <!-- ???? -->
  <rect x="320" y="228" width="200" height="92" rx="6" fill="#e8f4fc" stroke="#0f4c81" stroke-width="2"/>
  <text x="420" y="254" text-anchor="middle" font-size="13" font-weight="600" fill="#0f4c81">????</text>
  <text x="420" y="272" text-anchor="middle" font-size="9" fill="#4a5568">????, ???????, ??????????</text>
  <text x="420" y="288" text-anchor="middle" font-size="9" fill="#4a5568">origin_port_id, destination_port_id ? ????</text>
  <text x="420" y="304" text-anchor="middle" font-size="8" fill="#718096">shipments</text>

  <!-- ???? -->
  <rect x="320" y="392" width="200" height="76" rx="6" fill="#e8f4fc" stroke="#0f4c81" stroke-width="2"/>
  <text x="420" y="420" text-anchor="middle" font-size="13" font-weight="600" fill="#0f4c81">????</text>
  <text x="420" y="438" text-anchor="middle" font-size="8" fill="#718096">cargo</text>

  <!-- ????? ? ???? 1:N -->
  <line x1="420" y1="164" x2="420" y2="228" stroke="#1a365d" stroke-width="1.8" marker-end="url(#arr)"/>
  <text x="432" y="192" font-size="11" font-weight="700" fill="#c53030">1</text>
  <text x="432" y="212" font-size="11" font-weight="700" fill="#c53030">N</text>

  <!-- ???? ? ???? 1:N -->
  <line x1="420" y1="320" x2="420" y2="392" stroke="#1a365d" stroke-width="1.8" marker-end="url(#arr)"/>
  <text x="432" y="352" font-size="11" font-weight="700" fill="#c53030">1</text>
  <text x="432" y="372" font-size="11" font-weight="700" fill="#c53030">N</text>

  <!-- ??????????? -->
  <rect x="40" y="376" width="168" height="92" rx="6" fill="#edf7ed" stroke="#276749" stroke-width="1.5"/>
  <text x="124" y="402" text-anchor="middle" font-size="12" font-weight="600" fill="#22543d">???????????</text>
  <text x="124" y="420" text-anchor="middle" font-size="9" fill="#4a5568">????????????, ???</text>
  <text x="124" y="436" text-anchor="middle" font-size="8" fill="#718096">senders</text>
  <line x1="208" y1="422" x2="320" y2="430" stroke="#1a365d" stroke-width="1.5" marker-end="url(#arr)"/>
  <text x="248" y="414" font-size="11" font-weight="700" fill="#c53030">1</text>
  <text x="288" y="434" font-size="11" font-weight="700" fill="#c53030">N</text>

  <!-- ?????????? -->
  <rect x="712" y="376" width="168" height="92" rx="6" fill="#edf7ed" stroke="#276749" stroke-width="1.5"/>
  <text x="796" y="402" text-anchor="middle" font-size="12" font-weight="600" fill="#22543d">??????????</text>
  <text x="796" y="420" text-anchor="middle" font-size="9" fill="#4a5568">????????????, ???</text>
  <text x="796" y="436" text-anchor="middle" font-size="8" fill="#718096">consignees</text>
  <line x1="712" y1="422" x2="520" y2="430" stroke="#1a365d" stroke-width="1.5" marker-end="url(#arr)"/>
  <text x="660" y="414" font-size="11" font-weight="700" fill="#c53030">1</text>
  <text x="600" y="434" font-size="11" font-weight="700" fill="#c53030">N</text>

  <!-- ???? -->
  <rect x="320" y="520" width="200" height="64" rx="6" fill="#fef5f5" stroke="#9b2c2c" stroke-width="1.5"/>
  <text x="420" y="548" text-anchor="middle" font-size="12" font-weight="600" fill="#742a2a">????</text>
  <text x="420" y="566" text-anchor="middle" font-size="8" fill="#718096">ports</text>

  <!-- ???? — ????: ??? ????? M:1 (????????? ?? ???? ????? ? ????? ?????) -->
  <path d="M 360 310 L 300 310 L 300 520 L 360 520" fill="none" stroke="#9b2c2c" stroke-width="1.2" stroke-dasharray="5,3"/>
  <path d="M 480 310 L 540 310 L 540 520 L 480 520" fill="none" stroke="#9b2c2c" stroke-width="1.2" stroke-dasharray="5,3"/>
  <text x="278" y="412" font-size="8.5" fill="#742a2a" transform="rotate(-90 278,412)">???????????</text>
  <text x="552" y="412" font-size="8.5" fill="#742a2a" transform="rotate(90 552,412)">??????????</text>
  <text x="318" y="300" font-size="9" fill="#742a2a">M:1</text>
  <text x="488" y="300" font-size="9" fill="#742a2a">M:1</text>

  <!-- ????? — ???? ????????: ????? ?????, ?? ????? ???? -->
  <path d="M 340 126 L 240 126 L 240 552 L 360 552" fill="none" stroke="#9b2c2c" stroke-width="1.1" stroke-dasharray="6,4"/>
  <text x="222" y="340" font-size="9" fill="#742a2a">N:1</text>
  <text x="222" y="356" font-size="8" fill="#742a2a">????????</text>

  <!-- ????? -->
  <rect x="320" y="608" width="200" height="40" rx="4" fill="#f3e8ff" stroke="#553c9a" stroke-width="1.3"/>
  <text x="420" y="632" text-anchor="middle" font-size="11.5" font-weight="600" fill="#44337a">?????</text>
  <line x1="420" y1="584" x2="420" y2="608" stroke="#553c9a" stroke-width="1.3" marker-end="url(#arr)"/>
  <text x="432" y="600" font-size="9" fill="#553c9a">N:1</text>
  <text x="420" y="648" text-anchor="middle" font-size="8" fill="#718096">addresses; ???? ? ????? ?????</text>

  <!-- ???????????: ????, ??. ???. -->
  <rect x="628" y="500" width="264" height="132" rx="6" fill="#fff8e6" stroke="#c05621" stroke-width="1.5"/>
  <text x="760" y="526" text-anchor="middle" font-size="11" font-weight="600" fill="#744210">?????? ???????????</text>
  <text x="760" y="546" text-anchor="middle" font-size="9.5" fill="#4a5568">???? (banks) — ? ??????????? ? ??????????</text>
  <text x="760" y="564" text-anchor="middle" font-size="9.5" fill="#4a5568">??????? ????????? (units) — ? ?????</text>
  <text x="760" y="586" text-anchor="middle" font-size="8" fill="#718096">FK: N ?????? ?? 1 ???????; N ???????? ?? 1 ????</text>
  <!-- sender ? bank -->
  <path d="M 180 376 L 180 320 L 628 320 L 628 500" fill="none" stroke="#805ad5" stroke-width="1" stroke-dasharray="4,3" marker-end="url(#arrP)"/>
  <text x="360" y="312" font-size="8" fill="#553c9a">N:1</text>
  <!-- consignee ? bank -->
  <path d="M 840 376 L 840 340 L 892 340 L 892 500" fill="none" stroke="#805ad5" stroke-width="1" stroke-dasharray="4,3" marker-end="url(#arrP)"/>
  <text x="870" y="420" font-size="8" fill="#553c9a">N:1</text>
  <!-- cargo ? unit -->
  <path d="M 520 430 L 600 430 L 600 500" fill="none" stroke="#805ad5" stroke-width="1" stroke-dasharray="4,3" marker-end="url(#arrP)"/>
  <text x="560" y="424" font-size="8" fill="#553c9a">N:1</text>

  <!-- ??????? -->
  <rect x="28" y="500" width="210" height="108" rx="4" fill="#ffffff" stroke="#cbd5e0" stroke-width="1"/>
  <text x="38" y="522" font-size="10" font-weight="600" fill="#2d3748">???????? ???????????</text>
  <line x1="38" y1="538" x2="78" y2="538" stroke="#1a365d" stroke-width="1.6" marker-end="url(#arr)"/>
  <text x="84" y="542" font-size="8.5" fill="#4a5568">???????? ??????? ? ??????? ? ???? (1:N)</text>
  <line x1="38" y1="556" x2="78" y2="556" stroke="#805ad5" stroke-dasharray="4,2" stroke-width="1" marker-end="url(#arrP)"/>
  <text x="84" y="560" font-size="8.5" fill="#4a5568">?????????? ??????????? (N:1 ?? FK)</text>
  <line x1="38" y1="574" x2="78" y2="574" stroke="#9b2c2c" stroke-dasharray="4,2" stroke-width="1"/>
  <text x="84" y="578" font-size="8.5" fill="#4a5568">???? — ????; ????? — ???? ????????</text>
  <line x1="38" y1="592" x2="78" y2="592" stroke="#553c9a" stroke-width="1.2" marker-end="url(#arr)"/>
  <text x="84" y="596" font-size="8.5" fill="#4a5568">???? — ?????</text>
</svg>
